<svg height="512" viewBox="0 0 64 64" width="512" xmlns="http://www.w3.org/2000/svg"><g id="Skill"><circle cx="32" cy="32" fill="#ffd422" r="25"/><path d="m44 44.9v4.1h-9l-1.82-8.18.82-.82 3 1 .7-2.8 2.74 1.22a6 6 0 0 1 3.56 5.48z" fill="#3d9ae2"/><path d="m40 25a2 2 0 0 1 0 4 2.03 2.03 0 0 1 -1.04-.29 5.529 5.529 0 0 0 .04-.71v-2.73a2 2 0 0 1 1-.27z" fill="#ffb655"/><path d="m41 19v3l-2 2h-.56a2.009 2.009 0 0 1 -1.9-1.37l-.54-1.63-1.87 1.4a7.982 7.982 0 0 1 -4.8 1.6h-4.33l-3-3 1-2-2-4h16a4 4 0 0 1 4 4z" fill="#57565c"/><path d="m39 25.27v2.73a5.529 5.529 0 0 1 -.04.71 6.937 6.937 0 0 1 -3.96 5.61 7.017 7.017 0 0 1 -7.95-1.37 6.938 6.938 0 0 1 -2.01-4.24 5.529 5.529 0 0 1 -.04-.71v-4h4.33a7.982 7.982 0 0 0 4.8-1.6l1.87-1.4.54 1.63a2.009 2.009 0 0 0 1.9 1.37h.56z" fill="#ffc477"/><path d="m37.7 38.2-.7 2.8-3-1-1-2 2-1z" fill="#1e81ce"/><path d="m35 34v3l-2 1h-2l-2-1v-3z" fill="#ffc477"/><path d="m33.18 40.82 1.82 8.18h-6l1.82-8.18 1.18 1.18z" fill="#ed1c24"/><path d="m33 38 1 2-.82.82-1.18 1.18-1.18-1.18-.82-.82 1-2z" fill="#ed1c24"/><path d="m31 38-1 2-3 1-.7-2.8 2.7-1.2z" fill="#1e81ce"/><path d="m30.82 40.82-1.82 8.18h-9v-4.1a6 6 0 0 1 3.56-5.48l2.74-1.22.7 2.8 3-1z" fill="#3d9ae2"/><path d="m25 28a5.529 5.529 0 0 0 .04.71 2.03 2.03 0 0 1 -1.04.29 2 2 0 1 1 1-3.73z" fill="#ffb655"/><g fill="#ee8700"><path d="m60.08 30h-1.63l-.5-1.55a1 1 0 0 0 -1.31-.63.978.978 0 0 0 -.59.63l-.5 1.55h-1.63a1 1 0 0 0 -.59 1.81l1.32.95-.5 1.55a1 1 0 0 0 1.54 1.12l1.18-.86v-.01l.13-.09 1.31.96a1 1 0 0 0 1.54-1.12l-.5-1.55 1.32-.95a1 1 0 0 0 -.59-1.81z"/><path d="m53.08 48h-1.63l-.07-.21-.43-1.34a1 1 0 0 0 -1.9 0l-.5 1.55h-1.63a1 1 0 0 0 -.59 1.81l1.32.95-.32.98-.18.57a1 1 0 0 0 1.54 1.12l1.31-.96 1.31.96a1 1 0 0 0 1.54-1.12l-.5-1.55 1.32-.95a1 1 0 0 0 -.59-1.81z"/><path d="m47.65 14.76-.5 1.55a1 1 0 0 0 1.54 1.12l1.31-.96 1.31.96a1 1 0 0 0 1.54-1.12l-.5-1.55 1.32-.95a1 1 0 0 0 -.59-1.81h-1.63l-.5-1.55a1 1 0 0 0 -1.9 0l-.5 1.55h-1.63a1 1 0 0 0 -.59 1.81z"/><path d="m35.08 5h-1.63l-.5-1.55a1 1 0 0 0 -1.9 0l-.5 1.55h-1.63a1 1 0 0 0 -.59 1.81l.55.39.77.56-.5 1.55a1 1 0 0 0 1.54 1.12l1.31-.96 1.31.96a1 1 0 0 0 1.54-1.12l-.5-1.55.77-.56.55-.39a1 1 0 0 0 -.59-1.81z"/><path d="m35.08 55h-1.63l-.5-1.55a1 1 0 0 0 -1.9 0l-.5 1.55h-1.63a1 1 0 0 0 -.69 1.72.9.9 0 0 0 .1.09l1.32.95-.5 1.55a1 1 0 0 0 1.54 1.12l1.31-.96 1.31.96a1 1 0 0 0 1.54-1.12l-.5-1.55 1.32-.95a.9.9 0 0 0 .1-.09 1 1 0 0 0 -.69-1.72z"/><path d="m17.08 12h-1.63l-.5-1.55a1 1 0 0 0 -1.9 0l-.5 1.55h-1.63a1 1 0 0 0 -.59 1.81l1.32.95-.5 1.55a1 1 0 0 0 1.54 1.12l1.31-.96 1.31.96a1 1 0 0 0 1.54-1.12l-.5-1.55 1.32-.95a1 1 0 0 0 -.59-1.81z"/><path d="m17.08 48h-1.63l-.5-1.55a1 1 0 0 0 -1.9 0l-.43 1.34-.07.21h-1.63a1 1 0 0 0 -.59 1.81l1.32.95-.5 1.55a1 1 0 0 0 1.54 1.12l1.31-.96 1.31.96a1 1 0 0 0 1.54-1.12l-.18-.57-.32-.98 1.32-.95a1 1 0 0 0 -.59-1.81z"/><path d="m9.35 32.76 1.32-.95a1 1 0 0 0 -.59-1.81h-1.63l-.5-1.55a.978.978 0 0 0 -.59-.63 1 1 0 0 0 -1.31.63l-.5 1.55h-1.63a1 1 0 0 0 -.59 1.81l1.32.95-.5 1.55a1 1 0 0 0 1.54 1.12l1.31-.96.13.09v.01l1.18.86a1 1 0 0 0 1.54-1.12z"/></g><path d="m35 34.32v1a6.958 6.958 0 0 1 -6 0v-1a6.958 6.958 0 0 0 6 0z" fill="#ffb655"/><path d="m28 26h2v2h-2z"/><path d="m34 26h2v2h-2z"/><path d="m61.98 30.382a1.97 1.97 0 0 0 -1.902-1.382h-.9l-.278-.854a1.951 1.951 0 0 0 -1.436-1.31 25.753 25.753 0 0 0 -3.837-9.242 1.956 1.956 0 0 0 .173-1.594l-.277-.854.726-.528a2 2 0 0 0 -1.171-3.618h-.9l-.278-.854a2 2 0 0 0 -3.8 0l-.28.854h-.505a25.819 25.819 0 0 0 -10.308-4.512 1.981 1.981 0 0 0 -1.929-2.488h-.9l-.278-.854a2 2 0 0 0 -3.8 0l-.28.854h-.9a1.981 1.981 0 0 0 -1.929 2.488 25.819 25.819 0 0 0 -10.306 4.512h-.5l-.278-.854a2 2 0 0 0 -3.8 0l-.287.854h-.9a2 2 0 0 0 -1.175 3.618l.726.528-.271.854a1.956 1.956 0 0 0 .175 1.594 25.753 25.753 0 0 0 -3.837 9.242 1.951 1.951 0 0 0 -1.438 1.31l-.28.854h-.9a2 2 0 0 0 -1.175 3.618l.726.528-.271.854a2 2 0 0 0 3.077 2.236l.073-.052a25.777 25.777 0 0 0 4.436 10.838 1.987 1.987 0 0 0 -1.035 3.6l.726.528-.277.85a2 2 0 0 0 3.077 2.236l.723-.528.727.528a1.971 1.971 0 0 0 2.351 0 2.011 2.011 0 0 0 .527-.595 25.819 25.819 0 0 0 10.2 4.016l.672.489-.277.854a2 2 0 0 0 3.077 2.236l.723-.528.727.528a2 2 0 0 0 3.073-2.236l-.277-.854.672-.489a25.819 25.819 0 0 0 10.2-4.016 2.011 2.011 0 0 0 .527.595 1.97 1.97 0 0 0 2.351 0l.727-.528.727.528a2 2 0 0 0 3.073-2.236l-.277-.854.726-.528a1.987 1.987 0 0 0 -1.035-3.6 25.777 25.777 0 0 0 4.436-10.838l.073.052a2 2 0 0 0 3.077-2.232l-.277-.854.726-.528a1.972 1.972 0 0 0 .731-2.236zm-9.233 2.236.726.528-.273.854a1.986 1.986 0 0 0 2.363 2.551 23.769 23.769 0 0 1 -3.87 9.173 1.95 1.95 0 0 0 -1.693-.96 1.971 1.971 0 0 0 -1.9 1.382l-.28.854h-.9a1.97 1.97 0 0 0 -1.9 1.382c-.013.042-.009.083-.02.124v-3.606a7 7 0 0 0 -4.154-6.394l-4.846-2.155v-1.444a7.969 7.969 0 0 0 3.75-4.941c.084.007.165.034.25.034a2.992 2.992 0 0 0 .376-5.962l1.331-1.331a1 1 0 0 0 .293-.707v-3a5.006 5.006 0 0 0 -5-5h-16a1 1 0 0 0 -.895 1.447l1.777 3.553-.777 1.553a1 1 0 0 0 .188 1.154l2.331 2.331a2.992 2.992 0 0 0 .376 5.962c.085 0 .167-.027.252-.035a8 8 0 0 0 2.091 3.693 7.862 7.862 0 0 0 1.657 1.235v1.458l-4.846 2.155a7 7 0 0 0 -4.154 6.394v3.606c-.011-.041-.007-.082-.02-.124a1.97 1.97 0 0 0 -1.902-1.382h-.9l-.278-.854a1.971 1.971 0 0 0 -1.9-1.382 1.95 1.95 0 0 0 -1.689.96 23.771 23.771 0 0 1 -3.87-9.172 1.969 1.969 0 0 0 .461.073 1.99 1.99 0 0 0 1.176-.389 1.97 1.97 0 0 0 .722-2.236l-.277-.854.726-.528a2 2 0 0 0 -1.171-3.618h-.9l-.278-.854a2 2 0 0 0 -.445-.728 23.739 23.739 0 0 1 3.631-8.794 1.986 1.986 0 0 0 1.185-.388l.729-.528.727.528a2 2 0 0 0 3.073-2.236l-.277-.854.726-.528a1.972 1.972 0 0 0 .727-2.236 2.073 2.073 0 0 0 -.206-.407 23.763 23.763 0 0 1 9.655-3.694l-.225.719a2 2 0 0 0 3.077 2.236l.723-.528.727.528a2 2 0 0 0 3.073-2.236l-.233-.719a23.763 23.763 0 0 1 9.655 3.694 2.073 2.073 0 0 0 -.206.407 1.972 1.972 0 0 0 .727 2.236l.726.528-.269.854a2 2 0 0 0 3.077 2.236l.723-.528.727.528a1.989 1.989 0 0 0 1.175.389h.01a23.739 23.739 0 0 1 3.631 8.794 2 2 0 0 0 -.445.728l-.278.853h-.9a2 2 0 0 0 -1.175 3.618zm-28.847-14.065-1.282-2.553h14.382a3 3 0 0 1 3 3v2.586l-1.414 1.414h-.145a1 1 0 0 1 -.948-.684l-.544-1.632a1 1 0 0 0 -1.549-.484l-1.867 1.4a7.04 7.04 0 0 1 -4.2 1.4h-3.919l-2.2-2.2.678-1.356a1 1 0 0 0 .008-.891zm16.1 7.447a1 1 0 0 1 0 2zm-16 2a1 1 0 0 1 0-2zm2-3h3.333a9.052 9.052 0 0 0 5.4-1.8l.757-.568.1.317a3 3 0 0 0 2.41 2.016v3.035a4.6 4.6 0 0 1 -.036.614 6 6 0 0 1 -8.542 4.8 5.833 5.833 0 0 1 -1.665-1.17 5.991 5.991 0 0 1 -1.726-3.663 4.614 4.614 0 0 1 -.031-.581zm6 11a7.915 7.915 0 0 0 2-.262v.644l-1.236.618h-1.528l-1.236-.618v-.644a7.921 7.921 0 0 0 2 .262zm-.783 3.8.4-.8h.764l.4.8-.781.786zm3.492-.621-.367-.735.683-.341 1.5.667-.234.937zm-5.734-1.076.683.341-.367.735-1.583.528-.234-.937zm-3.356 1.497.411 1.644a1 1 0 0 0 .97.756 1.01 1.01 0 0 0 .316-.051l2.407-.8-1.523 6.851h-7.2v-3.1a5 5 0 0 1 2.966-4.567zm5.788 3.184a.919.919 0 0 0 1.186 0l1.16 5.216h-3.506zm4.393 5.216-1.525-6.853 2.407.8a1.01 1.01 0 0 0 .318.053 1 1 0 0 0 .97-.757l.411-1.644 1.653.735a5 5 0 0 1 2.966 4.566v3.1zm12.747-35a1 1 0 0 0 .951-.691l.5-1.545.5 1.545a1 1 0 0 0 .951.691h1.625l-1.315.955a1 1 0 0 0 -.363 1.118l.5 1.545-1.314-.955a1 1 0 0 0 -1.176 0l-1.314.955.5-1.545a1 1 0 0 0 -.363-1.118l-1.307-.955zm-18-7a1 1 0 0 0 .951-.691l.502-1.557v.012l.5 1.545a1 1 0 0 0 .953.691h1.625l-1.315.955a1 1 0 0 0 -.363 1.118l.5 1.545-1.314-.955a1 1 0 0 0 -1.176 0l-1.31.955.5-1.545a1 1 0 0 0 -.363-1.118l-1.315-.955zm-18 7a1 1 0 0 0 .951-.691l.5-1.557.005.012.5 1.545a1 1 0 0 0 .951.691h1.625l-1.315.955a1 1 0 0 0 -.363 1.118l.5 1.545-1.314-.955a1 1 0 0 0 -1.176 0l-1.314.955.5-1.545a1 1 0 0 0 -.363-1.118l-1.312-.955zm-7.31 18.955-1.315-.955h1.625a1 1 0 0 0 .951-.691l.502-1.557v.012l.5 1.545a1 1 0 0 0 .953.691h1.625l-1.315.955a1 1 0 0 0 -.363 1.118l.5 1.545-1.314-.955a1 1 0 0 0 -1.176 0l-1.31.955.5-1.545a1 1 0 0 0 -.363-1.118zm9.351 19.708a1 1 0 0 0 -1.176 0l-1.314.955.5-1.545a1 1 0 0 0 -.363-1.118l-1.313-.955h1.625a1 1 0 0 0 .951-.691l.5-1.557.005.012.5 1.545a1 1 0 0 0 .951.691h1.625l-1.315.955a1 1 0 0 0 -.363 1.118l.5 1.545zm19.175 5.292a1 1 0 0 0 -.363 1.118l.5 1.545-1.314-.955a1 1 0 0 0 -1.176 0l-1.314.955.5-1.545a1 1 0 0 0 -.363-1.118l-1.311-.955h1.625a1 1 0 0 0 .951-.691l.5-1.557v.012l.5 1.545a1 1 0 0 0 .951.691h1.625zm1.315-2.955h-.9l-.278-.854a2 2 0 0 0 -3.8 0l-.28.854h-.9a1.97 1.97 0 0 0 -1.9 1.382c-.01.032-.007.064-.015.1a23.841 23.841 0 0 1 -9.466-4.341l.714-.519a1.953 1.953 0 0 0 .794-1.384.987.987 0 0 0 .953.762h24a.987.987 0 0 0 .953-.766 1.953 1.953 0 0 0 .794 1.384l.714.519a23.841 23.841 0 0 1 -9.466 4.341c-.008-.032 0-.064-.015-.1a1.97 1.97 0 0 0 -1.902-1.378zm16.685-4.045a1 1 0 0 0 -.363 1.118l.5 1.545-1.314-.955a1 1 0 0 0 -1.176 0l-1.314.955.5-1.545a1 1 0 0 0 -.363-1.118l-1.311-.955h1.625a1 1 0 0 0 .951-.691l.5-1.545.5 1.545a1 1 0 0 0 .951.691h1.625zm7-18a1 1 0 0 0 -.363 1.118l.5 1.545-1.314-.955a1 1 0 0 0 -1.176 0l-1.314.955.5-1.545a1 1 0 0 0 -.363-1.118l-1.311-.955h1.625a1 1 0 0 0 .951-.691l.5-1.557.005.012.5 1.545a1 1 0 0 0 .951.691h1.625z"/></g></svg>